<svg width="24" height="24" viewBox="0 0 24 24" xmlns="http://www.w3.org/2000/svg">
<path d="M9.75687 22.0371C9.16647 22.0371 8.60025 21.7864 8.18277 21.3401C7.7653 20.8938 7.53076 20.2886 7.53076 19.6575C7.53076 19.0263 7.7653 18.4211 8.18277 17.9748C8.60025 17.5285 9.16647 17.2778 9.75687 17.2778C10.3473 17.2778 10.9135 17.5285 11.331 17.9748C11.7484 18.4211 11.983 19.0263 11.983 19.6575C11.983 20.2886 11.7484 20.8938 11.331 21.3401C10.9135 21.7864 10.3473 22.0371 9.75687 22.0371ZM17.5483 22.0371C16.9579 22.0371 16.3916 21.7864 15.9742 21.3401C15.5567 20.8938 15.3221 20.2886 15.3221 19.6575C15.3221 19.0263 15.5567 18.4211 15.9742 17.9748C16.3916 17.5285 16.9579 17.2778 17.5483 17.2778C18.1387 17.2778 18.7049 17.5285 19.1224 17.9748C19.5398 18.4211 19.7744 19.0263 19.7744 19.6575C19.7744 20.2886 19.5398 20.8938 19.1224 21.3401C18.7049 21.7864 18.1387 22.0371 17.5483 22.0371ZM3.03624 5.28802C2.75838 5.27844 2.4949 5.15371 2.30151 4.94022C2.10813 4.72672 2 4.44119 2 4.14401C2 3.84683 2.10813 3.5613 2.30151 3.3478C2.4949 3.13431 2.75838 3.00958 3.03624 3H4.31737C5.32134 3 6.18953 3.74483 6.40769 4.79187L7.80235 11.5048C8.0205 12.5519 8.88869 13.2967 9.89266 13.2967H18.2539L19.859 6.43144H9.45746C9.18221 6.41801 8.9224 6.29168 8.73206 6.07872C8.54172 5.86575 8.43551 5.58256 8.43551 5.28802C8.43551 4.99348 8.54172 4.71029 8.73206 4.49732C8.9224 4.28436 9.18221 4.15803 9.45746 4.1446H19.859C20.1843 4.1445 20.5055 4.2237 20.7979 4.37618C21.0904 4.52867 21.3465 4.75042 21.5467 5.02458C21.7469 5.29874 21.8861 5.61809 21.9535 5.95836C22.021 6.29863 22.0149 6.65086 21.9359 6.98827L20.3309 13.8511C20.2152 14.3463 19.9479 14.786 19.5716 15.1001C19.1952 15.4142 18.7314 15.5848 18.2539 15.5847H9.89266C8.91851 15.5848 7.97345 15.2298 7.21355 14.5782C6.45366 13.9267 5.92438 13.0175 5.71314 12.001L4.31737 5.28802H3.03624Z"/>
</svg>
