<svg width="30" height="24" viewBox="0 0 30 24" xmlns="http://www.w3.org/2000/svg">
<path d="M18.5166 17.0713C19.3045 17.0713 20.0848 16.9161 20.8127 16.6146C21.5407 16.313 22.2021 15.8711 22.7593 15.3139C23.3164 14.7568 23.7584 14.0953 24.0599 13.3674C24.3614 12.6394 24.5166 11.8592 24.5166 11.0713C24.5166 10.2834 24.3614 9.50314 24.0599 8.77518C23.7584 8.04723 23.3164 7.38579 22.7593 6.82864C22.2021 6.27149 21.5407 5.82953 20.8127 5.52801C20.0848 5.22648 19.3045 5.07128 18.5166 5.07128C16.9253 5.07128 15.3992 5.70342 14.274 6.82864C13.1488 7.95386 12.5166 9.47998 12.5166 11.0713C12.5166 12.6626 13.1488 14.1887 14.274 15.3139C15.3992 16.4391 16.9253 17.0713 18.5166 17.0713ZM24.8366 15.9773L28.4166 19.5573C28.5121 19.6496 28.5882 19.76 28.6405 19.882C28.6928 20.0041 28.7203 20.1353 28.7214 20.2681C28.7224 20.4009 28.697 20.5325 28.6467 20.6554C28.5963 20.7783 28.5219 20.8899 28.428 20.9837C28.334 21.0775 28.2223 21.1517 28.0994 21.2019C27.9765 21.2521 27.8448 21.2773 27.712 21.276C27.5792 21.2748 27.448 21.2471 27.3261 21.1946C27.2041 21.1421 27.0938 21.0659 27.0016 20.9703L23.4216 17.3903C21.8141 18.6381 19.7914 19.2265 17.7654 19.0355C15.7393 18.8445 13.8622 17.8886 12.5162 16.3623C11.1701 14.8361 10.4563 12.8542 10.52 10.8202C10.5838 8.78618 11.4203 6.85291 12.8593 5.41393C14.2982 3.97495 16.2315 3.13845 18.2655 3.07471C20.2996 3.01097 22.2814 3.72478 23.8077 5.07083C25.3339 6.41689 26.2898 8.294 26.4808 10.32C26.6718 12.3461 26.0835 14.3687 24.8356 15.9763L24.8366 15.9773Z"/>
<rect x="1.37207" y="5.07078" width="8.85499" height="2.39923" rx="1.19961"/>
<rect x="1.37207" y="10.509" width="6.46414" height="2.39923" rx="1.19961"/>
<rect x="1.37207" y="15.9476" width="8.85499" height="2.39923" rx="1.19961"/>
</svg>
