<svg width="18" height="18" viewBox="0 0 18 18" fill="none" xmlns="http://www.w3.org/2000/svg">
<path d="M17.8402 9.16089C17.8402 9.53672 17.6961 9.90002 17.4266 10.1631C17.1635 10.4324 16.8 10.5828 16.4241 10.5828H10.7595V16.2453C10.7595 16.6211 10.6091 16.9844 10.3397 17.2475C10.0765 17.5106 9.71931 17.6609 9.34334 17.6609C8.96737 17.6609 8.60394 17.5106 8.34076 17.2475C8.07132 16.9844 7.92093 16.6211 7.92093 16.2453V10.5828H2.25635C1.88039 10.5828 1.51695 10.4324 1.25377 10.1631C0.990597 9.90002 0.84021 9.53672 0.84021 9.16089C0.84021 8.78506 0.990597 8.42802 1.25377 8.15868C1.51695 7.8956 1.88039 7.74527 2.25635 7.74527H7.92093V2.08278C7.92093 1.70695 8.07132 1.34364 8.34076 1.08056C8.60394 0.81122 8.96737 0.660889 9.34334 0.660889C9.71931 0.660889 10.0765 0.81122 10.3397 1.08056C10.6091 1.34364 10.7595 1.70695 10.7595 2.08278V7.74527H16.4241C16.8 7.74527 17.1635 7.8956 17.4266 8.15868C17.6961 8.42802 17.8402 8.78506 17.8402 9.16089Z" fill="white"/>
</svg>
