<svg width="16" height="16" viewBox="0 0 16 16" fill="none" xmlns="http://www.w3.org/2000/svg">
<path d="M15.0964 13.197L15.0955 13.1961L10.7037 8.96431L10.7034 8.96408L9.71183 8.02113L15.0955 2.84665C15.2084 2.73806 15.3005 2.61699 15.3586 2.4831C15.4156 2.35156 15.4503 2.20795 15.4503 2.0632C15.4503 1.91154 15.4279 1.76651 15.3579 1.63116C15.3015 1.50148 15.2217 1.36955 15.1174 1.26923L15.1174 1.26918L15.1154 1.26746C15.0036 1.1707 14.8783 1.08272 14.7399 1.02727C14.6009 0.9716 14.4408 0.95 14.2942 0.95C14.1444 0.95 13.996 0.98322 13.8497 1.03732L13.8497 1.0373L13.8484 1.0378C13.71 1.09324 13.5842 1.18141 13.4819 1.27975L7.28297 7.23788C7.17906 7.33775 7.09881 7.45925 7.04174 7.5909L7.04172 7.59089L7.0412 7.59221C6.98478 7.73319 6.95 7.87645 6.95 8.02133C6.95 8.16608 6.98472 8.30968 7.04174 8.44123C7.09881 8.57288 7.17906 8.69438 7.28297 8.79425L13.4819 14.7524L13.4819 14.7524L13.4829 14.7533C13.7012 14.9521 13.9875 15.0505 14.2832 15.0505C14.5813 15.0505 14.8674 14.9295 15.0736 14.7313C15.2907 14.5226 15.4063 14.2575 15.4065 13.9699C15.4178 13.6816 15.3022 13.4057 15.0964 13.197Z" fill="#B3B3B3" stroke="#B3B3B3" stroke-width="0.1"/>
<path d="M1.30391 2.80362L1.30483 2.80453L5.69665 7.03627L5.69689 7.0365L6.6885 7.97945L1.30487 13.1539C1.1919 13.2625 1.09978 13.3836 1.04174 13.5175C0.984717 13.649 0.95 13.7926 0.95 13.9374C0.95 14.089 0.97244 14.2341 1.04244 14.3694C1.09885 14.4991 1.17858 14.631 1.28297 14.7314L1.28292 14.7314L1.2849 14.7331C1.39676 14.8299 1.522 14.9179 1.66045 14.9733C1.79946 15.029 1.95952 15.0506 2.10617 15.0506C2.25596 15.0506 2.40431 15.0174 2.55064 14.9633L2.55065 14.9633L2.5519 14.9628C2.69034 14.9073 2.81611 14.8192 2.91843 14.7208L9.11736 8.7627C9.22127 8.66283 9.30152 8.54133 9.35859 8.40968L9.35861 8.40969L9.35913 8.40837C9.41555 8.26739 9.45033 8.12413 9.45033 7.97925C9.45033 7.8345 9.41561 7.6909 9.35859 7.55935C9.30152 7.4277 9.22127 7.3062 9.11737 7.20633L2.91843 1.24821L2.91844 1.24819L2.91744 1.24728C2.69911 1.04848 2.41287 0.950032 2.11712 0.950032C1.81906 0.950032 1.53294 1.0711 1.32678 1.26926C1.10959 1.47801 0.994076 1.74311 0.99381 2.03066C0.982566 2.31894 1.09813 2.59484 1.30391 2.80362Z" fill="#B3B3B3" stroke="#B3B3B3" stroke-width="0.1"/>
</svg>
